<?xml version="1.0" encoding="UTF-8"?>
<!DOCTYPE svg PUBLIC "-//W3C//DTD SVG 1.1//EN" "http://www.w3.org/Graphics/SVG/1.1/DTD/svg11.dtd">
<svg xmlns="http://www.w3.org/2000/svg" version="1.1" width="3416px" height="938px" style="shape-rendering:geometricPrecision; text-rendering:geometricPrecision; image-rendering:optimizeQuality; fill-rule:evenodd; clip-rule:evenodd" xmlns:xlink="http://www.w3.org/1999/xlink">
<g><path style="opacity:0.977" fill="#fcfcfc" d="M 666.5,-0.5 C 666.833,-0.5 667.167,-0.5 667.5,-0.5C 668.043,0.74213 668.377,2.07546 668.5,3.5C 667.686,6.29656 667.019,9.12989 666.5,12C 667.406,16.1473 667.573,20.314 667,24.5C 664.768,38.5667 662.268,52.5667 659.5,66.5C 661.425,68.8235 662.758,71.4901 663.5,74.5C 662.117,81.0902 661.284,87.7569 661,94.5C 658.079,100.415 654.079,105.415 649,109.5C 649.036,113.11 649.869,116.61 651.5,120C 649.921,122.82 648.921,125.82 648.5,129C 650.032,134.084 650.532,139.25 650,144.5C 642.45,160.266 635.45,176.266 629,192.5C 627.831,203.187 626.497,213.854 625,224.5C 620.721,232.892 616.554,241.392 612.5,250C 615.484,253.109 616.15,256.609 614.5,260.5C 615.14,265.2 615.973,269.866 617,274.5C 618.786,275.777 619.952,277.444 620.5,279.5C 618.883,287.172 617.383,294.838 616,302.5C 609.787,304.546 606.121,308.879 605,315.5C 601.281,318.097 598.114,321.263 595.5,325C 590.659,327.921 585.659,330.588 580.5,333C 576.881,337.074 573.381,341.241 570,345.5C 570.157,349.318 571.157,352.985 573,356.5C 573.929,360.244 573.429,363.744 571.5,367C 568.006,368.217 564.673,369.717 561.5,371.5C 556.806,377.694 552.306,384.028 548,390.5C 547.333,391.167 547.333,391.833 548,392.5C 553.229,395.308 554.896,399.641 553,405.5C 551.878,407.624 550.378,409.457 548.5,411C 544.916,413.041 541.416,415.208 538,417.5C 532.152,424.53 527.318,432.197 523.5,440.5C 523.894,442.955 525.06,444.955 527,446.5C 527.667,448.167 527.667,449.833 527,451.5C 521.667,455.881 515.5,458.215 508.5,458.5C 505.973,463.194 502.306,466.694 497.5,469C 495.153,469.334 492.819,469.167 490.5,468.5C 486.767,479.967 481.934,490.967 476,501.5C 474.082,514.505 472.082,527.505 470,540.5C 469.468,543.264 468.634,545.93 467.5,548.5C 456.586,549.238 448.753,554.572 444,564.5C 442.861,570.436 442.195,576.436 442,582.5C 438.37,588.07 433.203,591.237 426.5,592C 423.797,595.038 420.797,597.705 417.5,600C 412.298,602.225 407.298,604.725 402.5,607.5C 400.187,611.889 398.687,616.556 398,621.5C 396.667,622.833 395.333,624.167 394,625.5C 393.787,631.639 392.787,637.639 391,643.5C 383.607,647.058 376.107,650.391 368.5,653.5C 363.439,650.097 359.939,651.097 358,656.5C 355.667,658.167 353.333,659.833 351,661.5C 350.888,665.623 349.055,668.79 345.5,671C 338,675.918 330.333,680.584 322.5,685C 311.69,699.195 299.69,712.528 286.5,725C 271.578,735.711 256.745,746.544 242,757.5C 236.782,763.266 233.115,769.933 231,777.5C 230,778.5 229,779.5 228,780.5C 225.804,785.42 223.804,790.42 222,795.5C 218.701,798.978 215.034,801.978 211,804.5C 206.83,812.856 199.997,817.689 190.5,819C 183.194,826.306 175.86,833.64 168.5,841C 164.656,843.422 160.99,846.089 157.5,849C 154.22,851.129 151.22,850.962 148.5,848.5C 152.478,843.354 156.645,838.354 161,833.5C 162.627,827.7 164.127,821.866 165.5,816C 167.081,811.17 170.081,807.503 174.5,805C 179.62,802.94 184.62,800.607 189.5,798C 193.595,794.296 197.095,790.129 200,785.5C 208.69,777.809 217.023,769.809 225,761.5C 227,758.167 229,754.833 231,751.5C 235.221,739.505 240.221,727.838 246,716.5C 254.803,704.028 265.803,694.028 279,686.5C 280,684.833 281,683.167 282,681.5C 283.073,675.551 283.74,669.551 284,663.5C 285.686,658.395 289.186,655.229 294.5,654C 297.285,648.881 301.118,644.714 306,641.5C 312.851,626.322 324.351,616.488 340.5,612C 342.409,608.767 344.409,605.6 346.5,602.5C 357.471,602.674 367.804,600.174 377.5,595C 380.667,591.845 382.501,588.012 383,583.5C 383.333,576.833 383.667,570.167 384,563.5C 384.667,562.167 385.333,560.833 386,559.5C 392.03,556.484 398.197,553.651 404.5,551C 410.904,544.026 415.071,535.859 417,526.5C 417.377,516.469 416.877,506.469 415.5,496.5C 415.411,492.933 416.245,489.6 418,486.5C 422.247,483.292 426.747,480.458 431.5,478C 436.643,470.1 443.643,464.6 452.5,461.5C 453.685,458.407 455.019,455.407 456.5,452.5C 465.032,447.801 472.866,442.135 480,435.5C 480.26,426.713 483.26,419.046 489,412.5C 490.804,407.42 492.804,402.42 495,397.5C 499.745,393.878 504.578,390.378 509.5,387C 512.045,383.41 514.712,379.91 517.5,376.5C 525.019,372.81 531.852,368.144 538,362.5C 540.567,353.329 542.234,343.996 543,334.5C 545,331.167 547,327.833 549,324.5C 551.989,310.031 558.822,297.697 569.5,287.5C 575.415,284.293 581.248,280.96 587,277.5C 592.809,265.215 599.142,253.215 606,241.5C 611.306,221.302 615.973,200.969 620,180.5C 623.47,170.423 627.137,160.423 631,150.5C 633.52,139.638 635.187,128.638 636,117.5C 638.469,109.958 640.469,102.291 642,94.5C 644.527,90.7789 646.527,86.7789 648,82.5C 653.711,54.6619 659.878,26.9952 666.5,-0.5 Z"/></g>
<g><path style="opacity:0.974" fill="#fcfcfc" d="M 27.5,716.5 C 26.8333,716.5 26.5,716.167 26.5,715.5C 27.6407,709.842 30.6407,705.342 35.5,702C 39.5894,699.873 43.4228,697.373 47,694.5C 50.1314,676.706 60.298,665.206 77.5,660C 80.1667,656.333 82.8333,652.667 85.5,649C 91.3283,647.019 97.3283,645.686 103.5,645C 119.191,637.312 132.524,626.646 143.5,613C 160.788,606.928 170.288,594.761 172,576.5C 175.306,570.856 179.306,565.856 184,561.5C 186.099,562.287 188.266,562.62 190.5,562.5C 192.15,555.532 195.15,549.199 199.5,543.5C 198.926,541.941 198.26,540.441 197.5,539C 200.457,534.92 203.29,530.753 206,526.5C 229.182,517.485 243.515,500.819 249,476.5C 250.093,470.516 251.093,464.516 252,458.5C 263.659,441.499 276.826,425.666 291.5,411C 297.861,408.737 303.694,405.571 309,401.5C 313.133,391.637 313.466,381.637 310,371.5C 309.333,368.5 309.333,365.5 310,362.5C 317.496,354.186 323.496,344.853 328,334.5C 330.833,331.667 333.667,328.833 336.5,326C 343.617,321.217 350.45,316.051 357,310.5C 359.458,305.005 361.458,299.338 363,293.5C 366.667,288.5 371,284.167 376,280.5C 382.018,264.482 392.851,252.982 408.5,246C 414.707,239.75 419.541,232.583 423,224.5C 423.073,218.829 423.073,213.162 423,207.5C 425.52,202.284 427.853,196.95 430,191.5C 437.333,182.833 445.333,174.833 454,167.5C 458.637,160.886 461.637,153.552 463,145.5C 464.066,137.843 465.066,130.176 466,122.5C 469.78,118.718 472.78,114.384 475,109.5C 475.835,101.802 476.835,94.1351 478,86.5C 478.858,82.1133 481.191,78.7799 485,76.5C 484.987,66.8862 487.32,57.8862 492,49.5C 492.617,44.7468 493.617,40.0801 495,35.5C 495.687,33.4453 496.854,31.7786 498.5,30.5C 499.192,31.0253 499.692,31.6919 500,32.5C 500.667,35.5 500.667,38.5 500,41.5C 497.884,46.7326 496.051,52.0659 494.5,57.5C 495.406,59.7475 496.739,61.7475 498.5,63.5C 497.577,65.9242 496.077,67.9242 494,69.5C 493.587,72.2321 492.92,74.8987 492,77.5C 487.443,81.9435 485.776,87.2768 487,93.5C 489.969,98.2455 490.302,103.245 488,108.5C 485.79,115.169 482.123,120.836 477,125.5C 475.833,128.333 474.667,131.167 473.5,134C 474.27,135.775 475.437,137.275 477,138.5C 477.167,139.833 477.333,141.167 477.5,142.5C 476.634,149.446 474.8,156.113 472,162.5C 468.237,163.878 465.237,166.212 463,169.5C 459.99,179.501 453.823,186.668 444.5,191C 442.044,193.408 440.211,196.241 439,199.5C 438.28,203.716 436.947,207.716 435,211.5C 434.806,219.242 433.973,226.909 432.5,234.5C 434.366,237.832 434.533,241.165 433,244.5C 426.958,250.873 421.292,257.54 416,264.5C 410.025,277.118 403.525,289.451 396.5,301.5C 398.278,303.945 399.611,306.611 400.5,309.5C 399.232,314.492 399.232,319.492 400.5,324.5C 400.308,326.577 399.808,328.577 399,330.5C 392.092,334.738 385.759,339.738 380,345.5C 380.037,349.159 378.871,352.326 376.5,355C 372.437,357.41 368.104,359.077 363.5,360C 359.291,364.003 357.791,368.836 359,374.5C 356.73,379.098 354.063,383.431 351,387.5C 349.131,392.772 347.465,398.106 346,403.5C 341.3,408.57 338.3,414.57 337,421.5C 333.579,423.461 330.079,425.294 326.5,427C 322.003,433.325 317.003,439.159 311.5,444.5C 313.546,447.753 314.879,451.253 315.5,455C 314.862,461.336 313.528,467.503 311.5,473.5C 309.291,474.106 307.124,474.773 305,475.5C 304.759,478.289 304.092,480.956 303,483.5C 302.403,491.576 302.903,499.576 304.5,507.5C 303.167,507.5 301.833,507.5 300.5,507.5C 300.919,510.325 299.919,512.491 297.5,514C 289.264,520.412 279.93,523.412 269.5,523C 267.51,524.751 265.177,525.751 262.5,526C 261.107,527.171 260.273,528.671 260,530.5C 259.84,534.287 259.174,537.954 258,541.5C 254.167,544.667 250.333,547.833 246.5,551C 227.593,554.703 212.759,564.536 202,580.5C 197.922,588.991 193.588,597.324 189,605.5C 180.927,612.784 172.76,619.951 164.5,627C 159.172,628.163 154.172,630.163 149.5,633C 139.705,642.455 131.038,652.789 123.5,664C 121.884,664.615 120.551,665.615 119.5,667C 103.215,669.654 87.5481,674.32 72.5,681C 61.5926,687.397 54.2593,696.564 50.5,708.5C 45.0437,709.038 40.377,711.204 36.5,715C 33.5682,715.953 30.5682,716.453 27.5,716.5 Z"/></g>
<g><path style="opacity:0.966" fill="#fcfcfc" d="M -0.5,566.5 C -0.5,565.833 -0.5,565.167 -0.5,564.5C 6.72676,559.452 13.5601,553.785 20,547.5C 20.711,545.101 20.5443,542.768 19.5,540.5C 20.0983,539.205 20.5983,537.872 21,536.5C 24.9068,533.979 28.9068,531.645 33,529.5C 35.8571,524.59 38.5238,519.59 41,514.5C 47.7624,509.989 51.7624,503.655 53,495.5C 53.8333,494.667 54.6667,493.833 55.5,493C 62.0394,490.379 68.3727,487.379 74.5,484C 81.6239,473.209 90.4572,464.042 101,456.5C 103.047,453.036 104.713,449.37 106,445.5C 125.036,436.111 139.703,422.111 150,403.5C 160.353,385.273 167.853,365.94 172.5,345.5C 170.978,340.954 169.311,336.454 167.5,332C 167.625,330.373 168.125,328.873 169,327.5C 178.306,323.727 187.473,319.561 196.5,315C 206.761,303.404 218.261,293.237 231,284.5C 231.419,283.328 232.085,282.328 233,281.5C 233.119,271.489 236.453,262.822 243,255.5C 244.471,251.419 246.138,247.419 248,243.5C 252.054,239.446 256.054,235.446 260,231.5C 270.412,211.674 281.079,192.007 292,172.5C 294.978,163.256 297.644,153.923 300,144.5C 305.431,140.496 307.264,135.329 305.5,129C 306.964,120.557 309.464,112.391 313,104.5C 314.166,101.497 315.833,98.8302 318,96.5C 318.031,92.1958 319.031,88.1958 321,84.5C 324.324,89.3237 325.324,94.657 324,100.5C 321.635,105.928 320.301,111.595 320,117.5C 312.733,123.692 310.4,131.359 313,140.5C 311.667,143.167 310.333,145.833 309,148.5C 306.376,158.338 304.376,168.338 303,178.5C 300.707,181.456 299.373,184.79 299,188.5C 295.428,190.069 292.428,192.402 290,195.5C 285.514,206.469 280.514,217.136 275,227.5C 274.849,234.896 274.182,242.229 273,249.5C 269.972,250.617 267.305,252.284 265,254.5C 260.995,263.177 256.995,271.844 253,280.5C 250.348,283.008 247.681,285.342 245,287.5C 244.465,296.673 242.965,305.673 240.5,314.5C 235.263,315.235 232.096,318.235 231,323.5C 229.59,324.787 228.09,325.954 226.5,327C 221.791,327.469 217.291,328.635 213,330.5C 212.667,334.5 212.333,338.5 212,342.5C 211,343.167 210,343.833 209,344.5C 206.135,352.562 202.469,360.229 198,367.5C 197.571,369.669 198.071,371.669 199.5,373.5C 194.748,377.338 192.415,382.338 192.5,388.5C 193.988,393.762 194.488,399.095 194,404.5C 188.135,413.022 180.302,419.022 170.5,422.5C 169.94,428.742 168.44,434.742 166,440.5C 160.641,444.262 154.808,447.096 148.5,449C 147.5,450 146.5,451 145.5,452C 140.626,453.346 135.959,455.179 131.5,457.5C 127.787,463.089 124.454,468.922 121.5,475C 117.716,476.947 113.716,478.28 109.5,479C 102.983,486.182 95.8164,492.682 88,498.5C 85.9715,501.029 84.1381,503.696 82.5,506.5C 85.0014,513.341 82.6681,518.174 75.5,521C 72.9036,522.136 70.237,522.969 67.5,523.5C 68.9469,529.324 67.2803,534.158 62.5,538C 53.4936,539.026 44.4936,540.359 35.5,542C 35.1219,550.378 30.7885,554.712 22.5,555C 15.3644,559.901 7.69776,563.734 -0.5,566.5 Z"/></g>
<g><path style="opacity:0.965" fill="#fcfcfc" d="M 232.5,937.5 C 232.167,937.5 231.833,937.5 231.5,937.5C 231.393,935.097 232.393,933.264 234.5,932C 257.052,917.446 279.052,902.113 300.5,886C 302.291,883.586 303.957,881.086 305.5,878.5C 308.228,877.855 310.895,877.021 313.5,876C 317.802,870.026 323.468,866.026 330.5,864C 337.934,857.231 345.934,851.231 354.5,846C 356.291,843.586 357.957,841.086 359.5,838.5C 365.698,833.462 371.698,828.295 377.5,823C 381.203,819.633 384.536,815.966 387.5,812C 394.011,807.241 401.011,803.241 408.5,800C 411.61,794.891 415.943,791.224 421.5,789C 424.631,784.867 428.131,781.034 432,777.5C 433.332,771.508 434.666,765.508 436,759.5C 440.864,750.438 445.197,741.104 449,731.5C 459.241,725.13 470.074,719.963 481.5,716C 485.669,710.512 488.503,704.345 490,697.5C 492.333,693.167 494.667,688.833 497,684.5C 498.081,679.524 499.081,674.524 500,669.5C 504.759,662.989 508.759,655.989 512,648.5C 517.597,642.452 524.43,638.618 532.5,637C 535.415,633.172 538.081,629.172 540.5,625C 548.69,623.706 556.357,621.04 563.5,617C 581.83,596.663 596.996,574.163 609,549.5C 610.705,539.5 612.372,529.5 614,519.5C 617.509,512.623 622.676,507.457 629.5,504C 635.667,497.167 641.833,490.333 648,483.5C 650.09,476.009 651.09,468.343 651,460.5C 652,458.833 653,457.167 654,455.5C 652.998,447.275 655.165,440.108 660.5,434C 663.663,431.584 666.996,429.418 670.5,427.5C 672.079,424.006 673.913,420.673 676,417.5C 681.042,413.06 685.375,408.06 689,402.5C 694.721,391.062 698.721,379.062 701,366.5C 704.025,362.429 705.359,357.762 705,352.5C 708.502,336.694 715.835,323.027 727,311.5C 733.644,300.588 736.31,288.922 735,276.5C 739.003,263.835 742.003,250.835 744,237.5C 744.207,228.492 744.207,219.492 744,210.5C 745.274,206.01 746.941,201.677 749,197.5C 750.601,183.827 753.601,170.494 758,157.5C 759.133,155.789 760.633,155.289 762.5,156C 760.872,160.983 760.039,166.15 760,171.5C 758.5,174.5 757,177.5 755.5,180.5C 756.046,181.772 756.379,183.106 756.5,184.5C 755.656,188.874 754.656,193.207 753.5,197.5C 754.078,200.488 755.078,203.322 756.5,206C 753.862,217.021 753.029,228.188 754,239.5C 751.298,247.067 748.465,254.567 745.5,262C 747.03,269.233 748.697,276.4 750.5,283.5C 750.333,285.5 750.167,287.5 750,289.5C 747.877,294.075 746.044,298.742 744.5,303.5C 745.199,307.095 746.199,310.595 747.5,314C 746.825,316.267 745.325,317.767 743,318.5C 741.539,322.232 739.706,325.732 737.5,329C 727.612,328.219 721.779,332.719 720,342.5C 720.519,351.949 718.852,360.949 715,369.5C 709.168,376.329 707.001,384.162 708.5,393C 708.313,398.269 707.48,403.436 706,408.5C 696.14,415.862 689.473,425.529 686,437.5C 681.462,452.19 678.462,467.19 677,482.5C 673.138,487.024 668.638,490.858 663.5,494C 661.206,500.34 660.873,506.84 662.5,513.5C 661.756,518.221 660.756,522.888 659.5,527.5C 660.53,531.465 660.697,535.465 660,539.5C 651.525,545.638 644.859,553.305 640,562.5C 639.49,567.802 638.157,572.802 636,577.5C 631.69,583.311 627.19,588.977 622.5,594.5C 617.955,594.165 613.788,595.498 610,598.5C 608.248,601.672 606.248,604.672 604,607.5C 602.631,616.414 597.798,622.58 589.5,626C 587.641,627.558 586.141,629.391 585,631.5C 582.021,637.957 579.187,644.457 576.5,651C 564.935,651.868 555.101,656.368 547,664.5C 550.314,676.243 547.814,686.577 539.5,695.5C 540.428,696.768 540.595,698.101 540,699.5C 534.122,703.71 529.289,708.877 525.5,715C 522.217,716.561 519.383,718.727 517,721.5C 514.719,727.57 510.552,731.737 504.5,734C 495.011,734.789 486.011,737.289 477.5,741.5C 471.853,748.315 466.02,754.981 460,761.5C 458.104,765.218 458.271,768.884 460.5,772.5C 459.839,776.335 457.839,779.169 454.5,781C 450.416,781.231 446.416,781.898 442.5,783C 437.717,790.117 432.551,796.95 427,803.5C 425.536,811.63 420.703,816.464 412.5,818C 410.167,818.333 407.833,818.667 405.5,819C 402.5,821.333 399.5,823.667 396.5,826C 393.211,826.882 389.877,827.548 386.5,828C 382.521,831.648 378.855,835.648 375.5,840C 370.981,840.519 367.481,842.686 365,846.5C 363.984,850.921 362.651,855.255 361,859.5C 353.042,867.397 343.542,872.564 332.5,875C 327.509,879.755 321.509,882.089 314.5,882C 312.918,884.085 310.918,885.585 308.5,886.5C 307.543,888.918 306.209,891.084 304.5,893C 280.878,908.458 256.878,923.291 232.5,937.5 Z"/></g>
<g><path style="opacity:0.993" fill="#fdfdfd" d="M 995.5,256.5 C 1084.5,256.5 1173.5,256.5 1262.5,256.5C 1262.5,296.167 1262.5,335.833 1262.5,375.5C 1177.17,375.333 1091.83,375.5 1006.5,376C 964.55,380.693 942.717,404.193 941,446.5C 940.333,490.5 940.333,534.5 941,578.5C 942.229,620.059 963.396,643.559 1004.5,649C 1049.83,649.5 1095.17,649.667 1140.5,649.5C 1140.5,584.167 1140.5,518.833 1140.5,453.5C 1181.24,478.714 1221.58,504.714 1261.5,531.5C 1262.5,610.831 1262.83,690.164 1262.5,769.5C 1179.83,769.667 1097.17,769.5 1014.5,769C 982.543,769.149 951.543,763.816 921.5,753C 874.175,733.336 843.341,698.836 829,649.5C 823.953,631.502 820.953,613.169 820,594.5C 819.333,539.833 819.333,485.167 820,430.5C 821.292,388.284 834.292,350.284 859,316.5C 886.594,285.613 921.094,267.113 962.5,261C 973.614,259.237 984.614,257.737 995.5,256.5 Z"/></g>
<g><path style="opacity:0.995" fill="#fdfdfd" d="M 1298.5,256.5 C 1387.5,256.333 1476.5,256.5 1565.5,257C 1677.75,264.912 1736.25,325.079 1741,437.5C 1743.75,478.22 1737.75,517.553 1723,555.5C 1704.48,595.185 1674.65,622.518 1633.5,637.5C 1677.53,681.529 1721.86,725.195 1766.5,768.5C 1709.17,769.667 1651.84,769.833 1594.5,769C 1536.64,711.471 1478.47,654.305 1420,597.5C 1419.5,654.832 1419.33,712.166 1419.5,769.5C 1379.17,769.5 1338.83,769.5 1298.5,769.5C 1298.5,598.5 1298.5,427.5 1298.5,256.5 Z M 1419.5,375.5 C 1464.5,375.333 1509.5,375.5 1554.5,376C 1599.45,382.129 1621.12,407.962 1619.5,453.5C 1621.05,478.705 1612.72,499.871 1594.5,517C 1582.48,525.231 1569.14,529.898 1554.5,531C 1509.5,531.5 1464.5,531.667 1419.5,531.5C 1419.5,479.5 1419.5,427.5 1419.5,375.5 Z"/></g>
<g><path style="opacity:0.996" fill="#fdfdfd" d="M 1781.5,256.5 C 1821.83,256.5 1862.17,256.5 1902.5,256.5C 1902.5,427.5 1902.5,598.5 1902.5,769.5C 1862.17,769.5 1821.83,769.5 1781.5,769.5C 1781.5,598.5 1781.5,427.5 1781.5,256.5 Z"/></g>
<g><path style="opacity:0.996" fill="#fdfdfd" d="M 1966.5,256.5 C 2213.5,256.333 2460.5,256.5 2707.5,257C 2614.25,387.491 2521.25,518.157 2428.5,649C 2509.83,649.5 2591.17,649.667 2672.5,649.5C 2672.5,689.5 2672.5,729.5 2672.5,769.5C 2425.83,769.833 2179.17,769.5 1932.5,768.5C 2024.97,637.528 2117.64,506.695 2210.5,376C 2129.17,375.5 2047.83,375.333 1966.5,375.5C 1966.5,335.833 1966.5,296.167 1966.5,256.5 Z M 2331.5,374.5 C 2388.84,374.651 2446.17,375.151 2503.5,376C 2438.83,467.333 2374.17,558.667 2309.5,650C 2252.5,649.964 2195.5,649.464 2138.5,648.5C 2202.86,557.149 2267.19,465.815 2331.5,374.5 Z"/></g>
<g><path style="opacity:0.996" fill="#fdfdfd" d="M 3415.5,256.5 C 3415.5,257.167 3415.5,257.833 3415.5,258.5C 3350.2,349.081 3285.36,440.081 3221,531.5C 3220.5,610.833 3220.33,690.166 3220.5,769.5C 3055.17,769.5 2889.83,769.5 2724.5,769.5C 2724.5,598.5 2724.5,427.5 2724.5,256.5C 2764.83,256.5 2805.17,256.5 2845.5,256.5C 2845.5,387.5 2845.5,518.5 2845.5,649.5C 2930.17,649.5 3014.83,649.5 3099.5,649.5C 3099.67,609.832 3099.5,570.165 3099,530.5C 3034.04,439.421 2969.21,348.255 2904.5,257C 2953.83,256.333 3003.17,256.333 3052.5,257C 3088.33,307.5 3124.17,358 3160,408.5C 3195.83,358 3231.67,307.5 3267.5,257C 3316.83,256.5 3366.17,256.333 3415.5,256.5 Z"/></g>
<g><path style="opacity:0.004" fill="#000100" d="M 26.5,715.5 C 26.5,716.167 26.8333,716.5 27.5,716.5C 27.44,717.043 27.1067,717.376 26.5,717.5C 25.2267,716.743 25.2267,716.077 26.5,715.5 Z"/></g>
</svg>
